<svg width="24" height="24" viewBox="0 0 24 24" fill="none" xmlns="http://www.w3.org/2000/svg">
<path fill-rule="evenodd" clip-rule="evenodd" d="M6.16405 22.125H2.84497C2.44475 22.125 2.2033 21.9016 2.09502 21.7685C1.90808 21.5385 1.83566 21.2393 1.89646 20.9473C2.87 16.271 6.99688 12.8559 11.7611 12.7451C11.8404 12.748 11.92 12.75 12 12.75C12.0807 12.75 12.161 12.748 12.241 12.745C13.406 12.7716 14.5439 12.9906 15.6271 13.3973C16.1118 13.5795 16.6523 13.334 16.8343 12.8492C17.0163 12.3645 16.7709 11.824 16.2862 11.642C16.131 11.5837 15.9747 11.5291 15.8177 11.4774C17.3693 10.3135 18.375 8.45948 18.375 6.375C18.375 2.85984 15.5152 0 12 0C8.48479 0 5.62499 2.85984 5.62499 6.375C5.62499 8.46136 6.63243 10.3168 8.18638 11.4805C6.76274 11.9492 5.4268 12.678 4.25764 13.6397C2.11396 15.403 0.623472 17.8625 0.0608315 20.5651C-0.115512 21.412 0.0957064 22.2818 0.640347 22.9515C1.18222 23.6178 1.9858 24 2.84497 24H6.16405C6.68183 24 7.10155 23.5803 7.10155 23.0625C7.10155 22.5447 6.68183 22.125 6.16405 22.125ZM7.49999 6.375C7.49999 3.89367 9.51866 1.875 12 1.875C14.4813 1.875 16.5 3.89367 16.5 6.375C16.5 8.78283 14.599 10.7549 12.2191 10.8696C12.1461 10.8683 12.0731 10.8672 12 10.8672C11.9267 10.8672 11.8534 10.8682 11.7802 10.8696C9.40058 10.7545 7.49999 8.78259 7.49999 6.375ZM23.2823 16.1535C22.881 15.2558 21.9771 14.6742 20.9772 14.6719H18.0535H18.0473C16.9926 14.6719 16.0724 15.2934 15.7022 16.2566C15.6529 16.3847 15.5927 16.5462 15.5298 16.7344H9.39171C9.13826 16.7344 8.89563 16.837 8.71905 17.0188L7.10862 18.6776C6.75391 19.043 6.75569 19.6246 7.1126 19.9878L8.75323 21.6571C8.92947 21.8364 9.17041 21.9375 9.42185 21.9375H12.4687C12.9865 21.9375 13.4062 21.5177 13.4062 21C13.4062 20.4822 12.9865 20.0625 12.4687 20.0625H9.81494L9.09176 19.3266L9.78818 18.6094H16.2331C16.665 18.6094 17.041 18.3143 17.1437 17.8948C17.2195 17.5851 17.3147 17.2874 17.4523 16.9294C17.543 16.6933 17.7709 16.5469 18.0495 16.5469H18.0513H20.975C21.2401 16.5475 21.4683 16.69 21.5705 16.9187C21.8222 17.4818 22.1227 18.3534 22.125 19.3087C22.1272 20.271 21.827 21.1626 21.5747 21.7412C21.473 21.9745 21.2429 22.125 20.986 22.125H20.9844H18.0254C17.7661 22.1244 17.5231 21.9575 17.4209 21.7098C17.3113 21.444 17.2163 21.1404 17.1304 20.7818C17.0099 20.2783 16.5039 19.9678 16.0005 20.0882C15.4969 20.2087 15.1864 20.7147 15.307 21.2182C15.4158 21.6728 15.5403 22.0675 15.6876 22.4247C16.0813 23.3792 16.9973 23.9976 18.0233 24H20.9823H20.9882C21.989 23.9999 22.8935 23.4079 23.2935 22.4905C23.6175 21.7475 24.003 20.5916 24 19.3042C23.997 18.0203 23.6081 16.8822 23.2823 16.1535ZM21.1406 19.3125C21.1406 19.8303 20.7209 20.25 20.2031 20.25C19.6854 20.25 19.2656 19.8303 19.2656 19.3125C19.2656 18.7947 19.6854 18.375 20.2031 18.375C20.7209 18.375 21.1406 18.7947 21.1406 19.3125Z" fill="#631421"/>
</svg>
